<svg xmlns="http://www.w3.org/2000/svg" viewBox="0 0 1160 1160"><path fill="currentColor" d="M440 80h40v40h-40zM480 80h40v40h-40zM560 80h40v40h-40zM600 80h40v40h-40zM640 80h40v40h-40zM400 120h40v40h-40zM440 120h40v40h-40zM480 120h40v40h-40zM520 120h40v40h-40zM560 120h40v40h-40zM640 120h40v40h-40zM400 160h40v40h-40zM440 160h40v40h-40zM480 160h40v40h-40zM520 160h40v40h-40zM640 160h40v40h-40zM720 160h40v40h-40zM400 200h40v40h-40zM440 200h40v40h-40zM560 200h40v40h-40zM600 200h40v40h-40zM440 240h40v40h-40zM560 240h40v40h-40zM640 240h40v40h-40zM720 240h40v40h-40zM440 280h40v40h-40zM520 280h40v40h-40zM600 280h40v40h-40zM400 320h40v40h-40zM480 320h40v40h-40zM560 320h40v40h-40zM640 320h40v40h-40zM720 320h40v40h-40zM400 360h40v40h-40zM440 360h40v40h-40zM680 360h40v40h-40zM720 360h40v40h-40zM80 400h40v40H80zM320 400h40v40h-40zM400 400h40v40h-40zM480 400h40v40h-40zM560 400h40v40h-40zM600 400h40v40h-40zM640 400h40v40h-40zM760 400h40v40h-40zM800 400h40v40h-40zM920 400h40v40h-40zM960 400h40v40h-40zM1000 400h40v40h-40zM80 440h40v40H80zM120 440h40v40h-40zM160 440h40v40h-40zM280 440h40v40h-40zM400 440h40v40h-40zM520 440h40v40h-40zM560 440h40v40h-40zM640 440h40v40h-40zM680 440h40v40h-40zM720 440h40v40h-40zM840 440h40v40h-40zM880 440h40v40h-40zM920 440h40v40h-40zM960 440h40v40h-40zM1000 440h40v40h-40zM80 480h40v40H80zM120 480h40v40h-40zM240 480h40v40h-40zM320 480h40v40h-40zM400 480h40v40h-40zM480 480h40v40h-40zM560 480h40v40h-40zM600 480h40v40h-40zM680 480h40v40h-40zM760 480h40v40h-40zM800 480h40v40h-40zM880 480h40v40h-40zM920 480h40v40h-40zM1000 480h40v40h-40zM1040 480h40v40h-40zM120 520h40v40h-40zM360 520h40v40h-40zM480 520h40v40h-40zM520 520h40v40h-40zM640 520h40v40h-40zM680 520h40v40h-40zM760 520h40v40h-40zM920 520h40v40h-40zM1040 520h40v40h-40zM80 560h40v40H80zM120 560h40v40h-40zM200 560h40v40h-40zM240 560h40v40h-40zM280 560h40v40h-40zM320 560h40v40h-40zM360 560h40v40h-40zM480 560h40v40h-40zM520 560h40v40h-40zM560 560h40v40h-40zM680 560h40v40h-40zM760 560h40v40h-40zM800 560h40v40h-40zM840 560h40v40h-40zM1040 560h40v40h-40zM80 600h40v40H80zM200 600h40v40h-40zM240 600h40v40h-40zM360 600h40v40h-40zM440 600h40v40h-40zM560 600h40v40h-40zM680 600h40v40h-40zM840 600h40v40h-40zM1000 600h40v40h-40zM80 640h40v40H80zM280 640h40v40h-40zM320 640h40v40h-40zM360 640h40v40h-40zM400 640h40v40h-40zM480 640h40v40h-40zM560 640h40v40h-40zM640 640h40v40h-40zM680 640h40v40h-40zM760 640h40v40h-40zM840 640h40v40h-40zM880 640h40v40h-40zM920 640h40v40h-40zM1000 640h40v40h-40zM1040 640h40v40h-40zM80 680h40v40H80zM200 680h40v40h-40zM480 680h40v40h-40zM560 680h40v40h-40zM680 680h40v40h-40zM720 680h40v40h-40zM760 680h40v40h-40zM800 680h40v40h-40zM840 680h40v40h-40zM920 680h40v40h-40zM960 680h40v40h-40zM1040 680h40v40h-40zM80 720h40v40H80zM200 720h40v40h-40zM280 720h40v40h-40zM320 720h40v40h-40zM600 720h40v40h-40zM640 720h40v40h-40zM680 720h40v40h-40zM720 720h40v40h-40zM760 720h40v40h-40zM800 720h40v40h-40zM840 720h40v40h-40zM880 720h40v40h-40zM960 720h40v40h-40zM400 760h40v40h-40zM440 760h40v40h-40zM480 760h40v40h-40zM520 760h40v40h-40zM600 760h40v40h-40zM680 760h40v40h-40zM720 760h40v40h-40zM880 760h40v40h-40zM440 800h40v40h-40zM520 800h40v40h-40zM560 800h40v40h-40zM600 800h40v40h-40zM720 800h40v40h-40zM800 800h40v40h-40zM880 800h40v40h-40zM1040 800h40v40h-40zM480 840h40v40h-40zM560 840h40v40h-40zM720 840h40v40h-40zM880 840h40v40h-40zM600 880h40v40h-40zM680 880h40v40h-40zM720 880h40v40h-40zM760 880h40v40h-40zM800 880h40v40h-40zM840 880h40v40h-40zM880 880h40v40h-40zM960 880h40v40h-40zM520 920h40v40h-40zM600 920h40v40h-40zM640 920h40v40h-40zM720 920h40v40h-40zM800 920h40v40h-40zM1000 920h40v40h-40zM1040 920h40v40h-40zM440 960h40v40h-40zM600 960h40v40h-40zM640 960h40v40h-40zM680 960h40v40h-40zM760 960h40v40h-40zM920 960h40v40h-40zM960 960h40v40h-40zM1040 960h40v40h-40zM560 1000h40v40h-40zM680 1000h40v40h-40zM720 1000h40v40h-40zM800 1000h40v40h-40zM840 1000h40v40h-40zM880 1000h40v40h-40zM1040 1000h40v40h-40zM400 1040h40v40h-40zM440 1040h40v40h-40zM480 1040h40v40h-40zM520 1040h40v40h-40zM560 1040h40v40h-40zM680 1040h40v40h-40zM720 1040h40v40h-40zM760 1040h40v40h-40zM920 1040h40v40h-40zM1040 1040h40v40h-40zM318 80H80v280h280V80h-42zm0 238H122V122h196v196zM1038 80H800v280h280V80h-42zm0 238H842V122h196v196zM318 800H80v280h280V800h-42zm0 238H122V842h196v196z"/><path fill="currentColor" d="M160 160h120v120H160zM880 160h120v120H880zM160 880h120v120H160z"/></svg>