<svg xmlns="http://www.w3.org/2000/svg" viewBox="0 0 1155 1155"><path fill="currentColor" d="M350 70h35v35h-35zM385 70h35v35h-35zM420 70h35v35h-35zM525 70h35v35h-35zM560 70h35v35h-35zM595 70h35v35h-35zM700 70h35v35h-35zM350 105h35v35h-35zM385 105h35v35h-35zM420 105h35v35h-35zM455 105h35v35h-35zM490 105h35v35h-35zM525 105h35v35h-35zM560 105h35v35h-35zM595 105h35v35h-35zM665 105h35v35h-35zM700 105h35v35h-35zM735 105h35v35h-35zM770 105h35v35h-35zM350 140h35v35h-35zM385 140h35v35h-35zM420 140h35v35h-35zM455 140h35v35h-35zM525 140h35v35h-35zM560 140h35v35h-35zM770 140h35v35h-35zM385 175h35v35h-35zM420 175h35v35h-35zM455 175h35v35h-35zM490 175h35v35h-35zM560 175h35v35h-35zM595 175h35v35h-35zM665 175h35v35h-35zM735 175h35v35h-35zM770 175h35v35h-35zM350 210h35v35h-35zM385 210h35v35h-35zM420 210h35v35h-35zM490 210h35v35h-35zM525 210h35v35h-35zM595 210h35v35h-35zM665 210h35v35h-35zM700 210h35v35h-35zM735 210h35v35h-35zM385 245h35v35h-35zM525 245h35v35h-35zM560 245h35v35h-35zM665 245h35v35h-35zM770 245h35v35h-35zM350 280h35v35h-35zM420 280h35v35h-35zM490 280h35v35h-35zM560 280h35v35h-35zM630 280h35v35h-35zM700 280h35v35h-35zM770 280h35v35h-35zM385 315h35v35h-35zM490 315h35v35h-35zM560 315h35v35h-35zM70 350h35v35H70zM175 350h35v35h-35zM210 350h35v35h-35zM245 350h35v35h-35zM280 350h35v35h-35zM315 350h35v35h-35zM350 350h35v35h-35zM385 350h35v35h-35zM490 350h35v35h-35zM525 350h35v35h-35zM560 350h35v35h-35zM595 350h35v35h-35zM630 350h35v35h-35zM665 350h35v35h-35zM805 350h35v35h-35zM910 350h35v35h-35zM980 350h35v35h-35zM1015 350h35v35h-35zM1050 350h35v35h-35zM70 385h35v35H70zM140 385h35v35h-35zM350 385h35v35h-35zM490 385h35v35h-35zM560 385h35v35h-35zM665 385h35v35h-35zM735 385h35v35h-35zM805 385h35v35h-35zM875 385h35v35h-35zM910 385h35v35h-35zM980 385h35v35h-35zM1015 385h35v35h-35zM105 420h35v35h-35zM140 420h35v35h-35zM210 420h35v35h-35zM245 420h35v35h-35zM280 420h35v35h-35zM385 420h35v35h-35zM420 420h35v35h-35zM560 420h35v35h-35zM665 420h35v35h-35zM700 420h35v35h-35zM805 420h35v35h-35zM875 420h35v35h-35zM980 420h35v35h-35zM175 455h35v35h-35zM210 455h35v35h-35zM350 455h35v35h-35zM385 455h35v35h-35zM420 455h35v35h-35zM560 455h35v35h-35zM595 455h35v35h-35zM665 455h35v35h-35zM770 455h35v35h-35zM805 455h35v35h-35zM840 455h35v35h-35zM945 455h35v35h-35zM1050 455h35v35h-35zM70 490h35v35H70zM105 490h35v35h-35zM140 490h35v35h-35zM175 490h35v35h-35zM280 490h35v35h-35zM420 490h35v35h-35zM490 490h35v35h-35zM525 490h35v35h-35zM560 490h35v35h-35zM700 490h35v35h-35zM770 490h35v35h-35zM840 490h35v35h-35zM875 490h35v35h-35zM1050 490h35v35h-35zM140 525h35v35h-35zM455 525h35v35h-35zM490 525h35v35h-35zM665 525h35v35h-35zM700 525h35v35h-35zM805 525h35v35h-35zM840 525h35v35h-35zM910 525h35v35h-35zM945 525h35v35h-35zM980 525h35v35h-35zM1015 525h35v35h-35zM1050 525h35v35h-35zM105 560h35v35h-35zM245 560h35v35h-35zM280 560h35v35h-35zM315 560h35v35h-35zM350 560h35v35h-35zM420 560h35v35h-35zM560 560h35v35h-35zM595 560h35v35h-35zM665 560h35v35h-35zM735 560h35v35h-35zM770 560h35v35h-35zM805 560h35v35h-35zM840 560h35v35h-35zM875 560h35v35h-35zM980 560h35v35h-35zM1050 560h35v35h-35zM70 595h35v35H70zM105 595h35v35h-35zM210 595h35v35h-35zM315 595h35v35h-35zM385 595h35v35h-35zM420 595h35v35h-35zM525 595h35v35h-35zM560 595h35v35h-35zM630 595h35v35h-35zM700 595h35v35h-35zM875 595h35v35h-35zM910 595h35v35h-35zM980 595h35v35h-35zM1050 595h35v35h-35zM210 630h35v35h-35zM280 630h35v35h-35zM490 630h35v35h-35zM595 630h35v35h-35zM735 630h35v35h-35zM770 630h35v35h-35zM945 630h35v35h-35zM70 665h35v35H70zM175 665h35v35h-35zM350 665h35v35h-35zM385 665h35v35h-35zM665 665h35v35h-35zM700 665h35v35h-35zM735 665h35v35h-35zM910 665h35v35h-35zM980 665h35v35h-35zM1015 665h35v35h-35zM70 700h35v35H70zM105 700h35v35h-35zM140 700h35v35h-35zM280 700h35v35h-35zM315 700h35v35h-35zM385 700h35v35h-35zM420 700h35v35h-35zM525 700h35v35h-35zM560 700h35v35h-35zM630 700h35v35h-35zM700 700h35v35h-35zM735 700h35v35h-35zM805 700h35v35h-35zM840 700h35v35h-35zM945 700h35v35h-35zM1050 700h35v35h-35zM70 735h35v35H70zM105 735h35v35h-35zM210 735h35v35h-35zM245 735h35v35h-35zM315 735h35v35h-35zM350 735h35v35h-35zM385 735h35v35h-35zM420 735h35v35h-35zM455 735h35v35h-35zM525 735h35v35h-35zM595 735h35v35h-35zM630 735h35v35h-35zM735 735h35v35h-35zM805 735h35v35h-35zM840 735h35v35h-35zM875 735h35v35h-35zM910 735h35v35h-35zM945 735h35v35h-35zM980 735h35v35h-35zM70 770h35v35H70zM105 770h35v35h-35zM140 770h35v35h-35zM245 770h35v35h-35zM280 770h35v35h-35zM385 770h35v35h-35zM420 770h35v35h-35zM490 770h35v35h-35zM525 770h35v35h-35zM665 770h35v35h-35zM735 770h35v35h-35zM770 770h35v35h-35zM805 770h35v35h-35zM840 770h35v35h-35zM875 770h35v35h-35zM910 770h35v35h-35zM945 770h35v35h-35zM980 770h35v35h-35zM1015 770h35v35h-35zM350 805h35v35h-35zM455 805h35v35h-35zM525 805h35v35h-35zM630 805h35v35h-35zM665 805h35v35h-35zM700 805h35v35h-35zM770 805h35v35h-35zM910 805h35v35h-35zM945 805h35v35h-35zM350 840h35v35h-35zM525 840h35v35h-35zM595 840h35v35h-35zM630 840h35v35h-35zM735 840h35v35h-35zM770 840h35v35h-35zM840 840h35v35h-35zM910 840h35v35h-35zM945 840h35v35h-35zM350 875h35v35h-35zM385 875h35v35h-35zM420 875h35v35h-35zM490 875h35v35h-35zM525 875h35v35h-35zM630 875h35v35h-35zM665 875h35v35h-35zM735 875h35v35h-35zM770 875h35v35h-35zM910 875h35v35h-35zM1015 875h35v35h-35zM1050 875h35v35h-35zM350 910h35v35h-35zM455 910h35v35h-35zM490 910h35v35h-35zM525 910h35v35h-35zM595 910h35v35h-35zM630 910h35v35h-35zM735 910h35v35h-35zM770 910h35v35h-35zM805 910h35v35h-35zM840 910h35v35h-35zM875 910h35v35h-35zM910 910h35v35h-35zM945 910h35v35h-35zM350 945h35v35h-35zM490 945h35v35h-35zM525 945h35v35h-35zM560 945h35v35h-35zM630 945h35v35h-35zM665 945h35v35h-35zM700 945h35v35h-35zM735 945h35v35h-35zM770 945h35v35h-35zM805 945h35v35h-35zM875 945h35v35h-35zM1015 945h35v35h-35zM420 980h35v35h-35zM525 980h35v35h-35zM630 980h35v35h-35zM805 980h35v35h-35zM875 980h35v35h-35zM910 980h35v35h-35zM980 980h35v35h-35zM1015 980h35v35h-35zM1050 980h35v35h-35zM455 1015h35v35h-35zM525 1015h35v35h-35zM595 1015h35v35h-35zM805 1015h35v35h-35zM875 1015h35v35h-35zM945 1015h35v35h-35zM980 1015h35v35h-35zM1050 1015h35v35h-35zM350 1050h35v35h-35zM455 1050h35v35h-35zM490 1050h35v35h-35zM665 1050h35v35h-35zM700 1050h35v35h-35zM735 1050h35v35h-35zM770 1050h35v35h-35zM840 1050h35v35h-35zM910 1050h35v35h-35zM945 1050h35v35h-35zM278.25 70H70v245h245V70h-36.75zm0 208.25h-171.5v-171.5h171.5v171.5zM1048.25 70H840v245h245V70h-36.75zm0 208.25h-171.5v-171.5h171.5v171.5zM278.25 840H70v245h245V840h-36.75zm0 208.25h-171.5v-171.5h171.5v171.5z"></path><path fill="currentColor" d="M140 140h105v105H140zM910 140h105v105H910zM140 910h105v105H140z"></path></svg>