<?xml version="1.0" standalone="no"?>
<!DOCTYPE svg PUBLIC "-//W3C//DTD SVG 20010904//EN"
 "http://www.w3.org/TR/2001/REC-SVG-20010904/DTD/svg10.dtd">
<svg version="1.0" xmlns="http://www.w3.org/2000/svg"
 width="160.000000pt" height="160.000000pt" viewBox="0 0 160.000000 160.000000"
 preserveAspectRatio="xMidYMid meet">
<g transform="translate(0.000000,160.000000) scale(0.100000,-0.100000)"
fill="#000000" stroke="none">
<path d="M747 1578 c-15 -15 -16 -22 -6 -34 14 -17 9 -17 -26 -4 -29 11 -75 4
-75 -12 0 -6 11 -8 25 -6 25 5 37 -16 14 -24 -8 -3 -6 -10 5 -21 10 -9 22 -15
27 -11 18 11 21 -25 4 -48 -10 -13 -15 -16 -12 -7 7 21 -45 79 -70 79 -61 -1
-65 -79 -7 -138 11 -10 10 -16 -4 -32 -9 -11 -18 -20 -21 -20 -2 0 -1 3 2 7 4
3 2 12 -4 19 -13 15 -51 9 -86 -13 -30 -20 -41 3 -14 28 l21 20 -22 29 c-30
37 -41 37 -77 -3 -17 -18 -40 -33 -52 -34 -26 -2 -44 -19 -54 -52 -5 -16 -4
-21 4 -17 6 4 11 3 11 -2 0 -19 38 0 48 24 6 13 24 26 39 30 15 4 34 11 41 17
21 16 14 -8 -8 -28 -23 -21 -26 -53 -6 -61 7 -3 37 4 66 15 66 25 105 13 41
-12 -47 -19 -97 -22 -137 -7 -24 10 -31 6 -73 -38 -25 -26 -57 -57 -70 -67
l-25 -20 22 32 c12 17 22 43 22 57 0 22 -3 25 -17 17 -15 -8 -18 -4 -20 26 -1
18 -10 48 -21 64 l-19 31 -6 -47 c-4 -26 -4 -52 0 -59 3 -6 -5 -1 -19 12 l-25
23 -5 -25 c-3 -13 1 -39 9 -57 13 -32 13 -32 -7 -14 -17 16 -20 16 -20 2 0 -9
4 -27 10 -41 6 -18 6 -26 -1 -26 -6 0 -9 -7 -5 -15 4 -13 2 -14 -15 -5 -18 10
-19 8 -15 -15 3 -14 8 -35 12 -47 5 -17 3 -20 -10 -15 -20 8 -20 4 -1 -33 8
-16 14 -39 13 -52 -1 -13 2 -34 6 -47 6 -17 5 -22 -4 -16 -9 6 -10 1 -5 -16 7
-21 6 -22 -7 -11 -13 11 -14 8 -8 -25 4 -21 11 -47 15 -57 7 -16 5 -18 -9 -13
-14 6 -16 3 -10 -16 3 -12 10 -26 14 -32 12 -15 9 -66 -3 -58 -6 4 -8 -3 -4
-18 11 -47 25 -94 33 -113 5 -14 4 -17 -4 -12 -21 13 -13 -10 17 -48 17 -21
28 -43 25 -50 -3 -8 7 -23 22 -35 26 -20 26 -21 5 -21 -31 0 -22 -19 20 -42
24 -13 46 -17 76 -14 25 3 45 0 51 -7 8 -9 -4 -12 -47 -13 -31 0 -65 -4 -76
-8 -17 -7 -13 -10 25 -26 25 -9 50 -15 57 -13 7 3 13 0 13 -5 0 -6 -9 -14 -20
-17 -30 -9 -24 -25 9 -25 27 0 47 -21 42 -44 -1 -5 12 -6 28 -3 17 4 33 2 36
-3 3 -6 1 -10 -4 -10 -6 0 -11 -4 -11 -10 0 -5 10 -10 21 -10 18 0 19 -2 9
-15 -13 -16 -9 -18 29 -15 14 1 21 -2 17 -9 -12 -19 47 -12 82 9 31 19 33 19
30 3 -2 -10 -21 -29 -42 -43 l-39 -25 28 -3 c19 -3 32 3 42 18 12 16 18 19 23
9 5 -6 19 -13 32 -15 12 -1 28 -3 33 -4 23 -5 35 1 35 18 0 27 10 33 32 21 14
-8 24 -7 35 2 16 14 20 11 49 -37 9 -16 13 -16 58 -1 39 13 48 14 52 2 7 -18
30 -26 53 -17 17 6 14 11 -25 37 -24 17 -44 34 -44 39 0 5 7 3 15 -4 8 -7 15
-9 15 -4 0 4 6 0 13 -11 11 -14 20 -16 43 -10 16 5 35 9 42 10 8 0 19 7 25 16
7 8 20 18 30 22 22 8 35 39 19 45 -27 9 -9 19 28 17 41 -2 85 19 74 36 -3 5
-10 7 -15 4 -5 -4 -9 -1 -9 6 0 6 -8 9 -20 6 -11 -3 -22 -2 -25 3 -8 12 32 19
44 7 8 -8 11 -7 11 3 0 13 2 13 9 1 15 -23 66 0 65 30 0 13 -6 23 -12 21 -35
-7 -92 -7 -92 0 0 8 15 12 39 9 7 -2 20 1 30 5 9 4 29 9 45 11 32 5 58 30 51
51 -2 6 0 12 6 12 6 0 8 4 4 9 -3 5 -1 12 5 16 18 11 11 27 -10 22 -11 -3 -20
-1 -20 4 0 5 5 9 10 9 15 0 47 35 55 59 4 13 1 28 -5 36 -10 12 -9 15 3 15 15
0 27 25 33 74 3 21 0 27 -10 23 -10 -4 -13 2 -11 22 1 15 5 33 9 40 4 6 11 25
16 42 8 26 6 31 -12 38 -18 6 -19 9 -5 14 16 6 18 42 2 66 -6 11 -11 10 -22
-4 -7 -11 -13 -14 -13 -8 0 7 4 14 9 18 6 3 13 27 16 53 3 26 15 65 25 87 10
22 17 49 15 60 -2 11 -4 24 -4 29 -1 4 -7 6 -15 3 -22 -9 -28 5 -10 25 24 26
2 51 -38 43 -17 -4 -28 -2 -28 4 0 6 5 11 11 11 5 0 7 5 4 10 -4 6 -1 17 5 25
7 8 9 15 5 15 -4 0 -2 6 4 14 6 7 9 21 5 30 -7 19 -9 19 -32 7 -15 -8 -17 -3
-17 37 0 34 -4 47 -14 47 -16 0 -54 -62 -46 -75 11 -17 -6 -38 -27 -32 -18 4
-20 2 -15 -19 4 -13 7 -30 7 -36 0 -7 7 -13 15 -13 9 0 12 -6 9 -15 -4 -9 0
-15 10 -15 9 0 16 -6 16 -14 0 -10 -7 -12 -22 -8 -20 5 -21 4 -10 -11 8 -9 22
-19 33 -22 10 -4 19 -14 19 -23 0 -13 -2 -13 -15 4 -14 18 -16 18 -28 2 -8
-10 -21 -15 -34 -12 -24 7 -38 -28 -23 -57 7 -12 6 -19 -3 -22 -8 -3 -7 -10 7
-26 11 -11 15 -21 10 -21 -14 0 -15 -111 -1 -138 8 -17 8 -28 0 -40 -8 -13 -6
-23 9 -45 25 -35 40 -87 26 -87 -5 0 -8 -6 -5 -13 3 -7 -4 -24 -14 -38 -10
-13 -19 -31 -19 -40 0 -8 -6 -24 -14 -34 -8 -11 -12 -25 -9 -32 3 -7 0 -13 -7
-13 -17 0 -51 -40 -44 -51 3 -5 0 -9 -5 -9 -6 0 -11 -7 -11 -16 0 -9 -9 -18
-20 -21 -11 -3 -23 -17 -26 -30 -4 -14 -10 -20 -13 -14 -11 17 -61 -10 -61
-32 0 -14 -5 -17 -19 -12 -14 4 -27 -4 -47 -30 -18 -23 -30 -32 -34 -24 -6 8
-14 7 -31 -4 -13 -8 -36 -17 -51 -21 -26 -6 -34 -22 -29 -61 0 -7 -13 -9 -34
-7 -19 2 -32 8 -30 13 3 4 -4 13 -15 19 -11 6 -20 17 -20 25 0 8 -4 15 -10 15
-5 0 -30 16 -56 35 -51 40 -70 45 -54 16 5 -11 10 -26 10 -33 -1 -7 -7 1 -14
17 -18 39 -56 83 -56 64 -1 -8 -14 2 -31 21 -16 19 -34 36 -39 36 -6 1 -14 2
-20 3 -5 0 -14 19 -20 42 -8 29 -15 39 -26 35 -8 -3 -17 1 -21 10 -3 8 -12 13
-20 10 -10 -4 -13 0 -11 12 4 22 -22 103 -39 120 -7 8 -10 25 -6 42 3 19 1 30
-6 30 -18 0 -13 17 14 44 24 24 32 55 18 70 -11 10 -13 39 -3 51 4 5 10 25 13
43 5 28 3 32 -10 28 -13 -5 -13 -4 -4 7 6 8 11 25 11 38 0 42 3 59 12 59 17 0
7 39 -13 54 -13 9 -19 21 -16 30 8 21 -2 20 -33 -1 l-25 -16 23 24 c12 14 22
33 22 42 0 9 5 19 10 22 12 8 42 -59 60 -135 12 -49 16 -169 7 -210 -11 -49
-32 -110 -48 -142 -21 -42 -19 -51 29 -128 50 -79 123 -146 254 -232 63 -42
126 -89 140 -106 l25 -30 22 29 c12 17 73 63 134 104 159 106 233 179 286 283
15 30 19 47 12 55 -5 7 -22 48 -36 92 -38 112 -38 229 -1 335 15 41 29 82 32
90 2 8 -13 35 -34 59 l-39 43 -31 -16 c-55 -28 -132 -4 -195 62 -28 29 -28 30
-8 37 12 3 19 10 16 15 -3 5 0 10 6 12 7 2 13 22 14 43 3 42 -14 64 -48 65
-23 0 -66 -49 -67 -74 0 -20 0 -20 -15 0 -20 27 -19 31 15 49 25 13 29 19 20
35 -14 26 -13 28 14 23 13 -3 26 -1 30 5 9 14 -50 23 -80 12 -22 -9 -25 -8
-20 8 4 11 -1 25 -11 34 -16 13 -20 13 -36 -4z m31 -102 c-10 -18 -11 -18 -20
-2 -5 9 -6 26 -3 37 6 19 7 20 20 2 10 -13 10 -23 3 -37z m442 -1046 c8 -15 7
-25 -3 -41 l-14 -20 -6 21 c-3 11 -1 23 5 26 5 3 7 12 4 20 -8 21 2 17 14 -6z
m-762 -97 c1 -24 0 -25 -9 -10 -5 9 -7 22 -4 27 9 15 10 13 13 -17z"/>
<path d="M1050 1408 c0 -6 -7 -19 -16 -29 -14 -16 -13 -19 6 -37 35 -32 16
-43 -36 -21 -36 17 -48 18 -60 8 -16 -13 -4 -34 19 -34 7 0 38 -9 70 -20 47
-16 60 -17 66 -6 11 17 3 47 -15 62 -18 15 -19 36 -1 22 6 -6 25 -13 40 -17
15 -4 33 -17 39 -31 12 -27 34 -39 43 -24 4 5 11 7 16 4 13 -9 11 2 -6 35 -9
17 -26 31 -43 35 -16 3 -42 19 -57 35 -29 30 -65 40 -65 18z"/>
</g>
</svg>
